{
  "accessors": [
    {
      "bufferView": 2,
      "componentType": 5126,
      "count": 439,
      "max": [
        3.5867209434509277,
        8.184915542602539,
        0.22411100566387177
      ],
      "min": [
        3.138498067855835,
        7.161495208740234,
        -0.22411100566387177
      ],
      "type": "VEC3"
    },
    {
      "bufferView": 2,
      "byteOffset": 5268,
      "componentType": 5126,
      "count": 439,
      "max": [
        1.0,
        1.0,
        1.0
      ],
      "min": [
        -1.0,
        -1.0,
        -1.0
      ],
      "type": "VEC3"
    },
    {
      "bufferView": 3,
      "componentType": 5126,
      "count": 439,
      "max": [
        0.9999967217445374,
        0.5239151120185852,
        0.9999989867210388,
        1.0
      ],
      "min": [
        -0.9999790191650391,
        -0.5453569889068604,
        -0.9999679327011108,
        1.0
      ],
      "type": "VEC4"
    },
    {
      "bufferView": 1,
      "componentType": 5126,
      "count": 439,
      "max": [
        0.9999989867210388,
        0.9905740022659302
      ],
      "min": [
        9.999999974752427e-07,
        9.999999974752427e-07
      ],
      "type": "VEC2"
    },
    {
      "bufferView": 0,
      "componentType": 5125,
      "count": 2280,
      "type": "SCALAR"
    },
    {
      "bufferView": 2,
      "byteOffset": 10536,
      "componentType": 5126,
      "count": 441,
      "max": [
        3.416882038116455,
        10.60531997680664,
        0.44999998807907104
      ],
      "min": [
        3.316883087158203,
        9.662614822387695,
        -0.44999998807907104
      ],
      "type": "VEC3"
    },
    {
      "bufferView": 2,
      "byteOffset": 15828,
      "componentType": 5126,
      "count": 441,
      "max": [
        0.9999939799308777,
        1.0,
        1.0
      ],
      "min": [
        -0.9999939799308777,
        -1.0,
        -1.0
      ],
      "type": "VEC3"
    },
    {
      "bufferView": 3,
      "byteOffset": 7024,
      "componentType": 5126,
      "count": 441,
      "max": [
        0.6474378705024719,
        0.9990438222885132,
        0.9999146461486816,
        1.0
      ],
      "min": [
        -0.7671753168106079,
        -0.9968664646148682,
        -0.9999236464500427,
        1.0
      ],
      "type": "VEC4"
    },
    {
      "bufferView": 1,
      "byteOffset": 3512,
      "componentType": 5126,
      "count": 441,
      "max": [
        0.9999989867210388,
        0.9859219789505005
      ],
      "min": [
        0.004097000230103731,
        9.999999974752427e-07
      ],
      "type": "VEC2"
    },
    {
      "bufferView": 0,
      "byteOffset": 9120,
      "componentType": 5125,
      "count": 2400,
      "type": "SCALAR"
    },
    {
      "bufferView": 2,
      "byteOffset": 21120,
      "componentType": 5126,
      "count": 441,
      "max": [
        3.563822031021118,
        9.82020378112793,
        0.02354400046169758
      ],
      "min": [
        3.1038219928741455,
        9.360203742980957,
        -0.03645600005984306
      ],
      "type": "VEC3"
    },
    {
      "bufferView": 2,
      "byteOffset": 26412,
      "componentType": 5126,
      "count": 441,
      "max": [
        1.0,
        1.0,
        0.9998144507408142
      ],
      "min": [
        -1.0,
        -1.0,
        -0.9998144507408142
      ],
      "type": "VEC3"
    },
    {
      "bufferView": 3,
      "byteOffset": 14080,
      "componentType": 5126,
      "count": 441,
      "max": [
        0.9999353289604187,
        0.998637318611145,
        0.6249305605888367,
        1.0
      ],
      "min": [
        -0.9987900257110596,
        -0.9997226595878601,
        -0.7943646311759949,
        1.0
      ],
      "type": "VEC4"
    },
    {
      "bufferView": 1,
      "byteOffset": 7040,
      "componentType": 5126,
      "count": 441,
      "max": [
        0.5301769971847534,
        0.5240139961242676
      ],
      "min": [
        9.999999974752427e-07,
        0.000534999999217689
      ],
      "type": "VEC2"
    },
    {
      "bufferView": 0,
      "byteOffset": 18720,
      "componentType": 5125,
      "count": 2400,
      "type": "SCALAR"
    },
    {
      "bufferView": 2,
      "byteOffset": 31704,
      "componentType": 5126,
      "count": 3473,
      "max": [
        4.932549953460693,
        9.494763374328613,
        1.6213289499282837
      ],
      "min": [
        1.5556939840316772,
        5.415377140045166,
        -1.7753169536590576
      ],
      "type": "VEC3"
    },
    {
      "bufferView": 2,
      "byteOffset": 73380,
      "componentType": 5126,
      "count": 3473,
      "max": [
        0.9999306201934814,
        1.0,
        0.9892556667327881
      ],
      "min": [
        -0.9965952634811401,
        -0.9999937415122986,
        -0.9971298575401306
      ],
      "type": "VEC3"
    },
    {
      "bufferView": 3,
      "byteOffset": 21136,
      "componentType": 5126,
      "count": 3473,
      "max": [
        0.9956123232841492,
        0.9999821782112122,
        0.9999997615814209,
        1.0
      ],
      "min": [
        -0.9999472498893738,
        -1.0,
        -0.999998152256012,
        -1.0
      ],
      "type": "VEC4"
    },
    {
      "bufferView": 1,
      "byteOffset": 10568,
      "componentType": 5126,
      "count": 3473,
      "max": [
        0.9879130125045776,
        0.9999989867210388
      ],
      "min": [
        0.0,
        0.0
      ],
      "type": "VEC2"
    },
    {
      "bufferView": 0,
      "byteOffset": 28320,
      "componentType": 5125,
      "count": 17571,
      "type": "SCALAR"
    },
    {
      "bufferView": 2,
      "byteOffset": 115056,
      "componentType": 5126,
      "count": 160,
      "max": [
        4.5108771324157715,
        7.601955890655518,
        1.2069729566574097
      ],
      "min": [
        2.0731019973754883,
        6.204507827758789,
        -1.2606329917907715
      ],
      "type": "VEC3"
    },
    {
      "bufferView": 2,
      "byteOffset": 116976,
      "componentType": 5126,
      "count": 160,
      "max": [
        0.9694961309432983,
        0.2917439639568329,
        0.9655160903930664
      ],
      "min": [
        -0.9675261378288269,
        -0.2853620648384094,
        -0.9592788815498352
      ],
      "type": "VEC3"
    },
    {
      "bufferView": 3,
      "byteOffset": 76704,
      "componentType": 5126,
      "count": 160,
      "max": [
        0.9214771389961243,
        0.968126654624939,
        0.9983863234519958,
        1.0
      ],
      "min": [
        -0.7207428812980652,
        -0.968808114528656,
        -0.9992464184761047,
        -1.0
      ],
      "type": "VEC4"
    },
    {
      "bufferView": 1,
      "byteOffset": 38352,
      "componentType": 5126,
      "count": 160,
      "max": [
        0.8137890100479126,
        0.9999989867210388
      ],
      "min": [
        9.999999974752427e-07,
        9.999999974752427e-07
      ],
      "type": "VEC2"
    },
    {
      "bufferView": 0,
      "byteOffset": 98604,
      "componentType": 5125,
      "count": 420,
      "type": "SCALAR"
    },
    {
      "bufferView": 2,
      "byteOffset": 118896,
      "componentType": 5126,
      "count": 1454,
      "max": [
        3.853224992752075,
        11.629495620727539,
        0.2552419900894165
      ],
      "min": [
        -0.122748002409935,
        3.2614169120788574,
        -0.21911099553108215
      ],
      "type": "VEC3"
    },
    {
      "bufferView": 2,
      "byteOffset": 136344,
      "componentType": 5126,
      "count": 1454,
      "max": [
        1.0,
        0.9999980926513672,
        1.0
      ],
      "min": [
        -1.0,
        -0.9996970295906067,
        -1.0
      ],
      "type": "VEC3"
    },
    {
      "bufferView": 3,
      "byteOffset": 79264,
      "componentType": 5126,
      "count": 1454,
      "max": [
        1.0,
        0.999995231628418,
        1.0,
        1.0
      ],
      "min": [
        -1.0,
        -0.9999387860298157,
        -1.0,
        -1.0
      ],
      "type": "VEC4"
    },
    {
      "bufferView": 1,
      "byteOffset": 39632,
      "componentType": 5126,
      "count": 1454,
      "max": [
        0.9999989867210388,
        0.9699839949607849
      ],
      "min": [
        9.999999974752427e-07,
        9.999999974752427e-07
      ],
      "type": "VEC2"
    },
    {
      "bufferView": 0,
      "byteOffset": 100284,
      "componentType": 5125,
      "count": 4065,
      "type": "SCALAR"
    }
  ],
  "asset": {
    "extras": {
      "author": "OlegCoder (https://sketchfab.com/olegcoder)",
      "license": "CC-BY-4.0 (http://creativecommons.org/licenses/by/4.0/)",
      "source": "https://sketchfab.com/3d-models/lamp-post-ad522d71193d497d9599aa26551270f4",
      "title": "Lamp post"
    },
    "generator": "Sketchfab-15.30.0",
    "version": "2.0"
  },
  "bufferViews": [
    {
      "buffer": 0,
      "byteLength": 116544,
      "name": "floatBufferViews",
      "target": 34963
    },
    {
      "buffer": 0,
      "byteLength": 51264,
      "byteOffset": 116544,
      "byteStride": 8,
      "name": "floatBufferViews",
      "target": 34962
    },
    {
      "buffer": 0,
      "byteLength": 153792,
      "byteOffset": 167808,
      "byteStride": 12,
      "name": "floatBufferViews",
      "target": 34962
    },
    {
      "buffer": 0,
      "byteLength": 102528,
      "byteOffset": 321600,
      "byteStride": 16,
      "name": "floatBufferViews",
      "target": 34962
    }
  ],
  "buffers": [
    {
      "byteLength": 424128,
      "uri": "scene.bin"
    }
  ],
  "images": [
    {
      "uri": "textures/Pillar_baseColor.jpeg"
    },
    {
      "uri": "textures/Pillar_metallicRoughness.png"
    },
    {
      "uri": "textures/Pillar_normal.png"
    },
    {
      "uri": "textures/metal_baseColor.jpeg"
    },
    {
      "uri": "textures/metal_metallicRoughness.png"
    },
    {
      "uri": "textures/metal_normal.png"
    },
    {
      "uri": "textures/glass_baseColor.png"
    },
    {
      "uri": "textures/glass_metallicRoughness.png"
    },
    {
      "uri": "textures/glass_normal.png"
    },
    {
      "uri": "textures/circle_baseColor.jpeg"
    },
    {
      "uri": "textures/circle_metallicRoughness.png"
    },
    {
      "uri": "textures/circle_normal.png"
    },
    {
      "uri": "textures/light_baseColor.png"
    },
    {
      "uri": "textures/light_metallicRoughness.png"
    },
    {
      "uri": "textures/light_normal.png"
    }
  ],
  "materials": [
    {
      "alphaMode": "BLEND",
      "doubleSided": true,
      "name": "Pillar",
      "normalTexture": {
        "index": 2
      },
      "occlusionTexture": {
        "index": 1
      },
      "pbrMetallicRoughness": {
        "baseColorFactor": [
          1.0,
          1.0,
          1.0,
          0.0
        ],
        "baseColorTexture": {
          "index": 0
        },
        "metallicRoughnessTexture": {
          "index": 1
        }
      }
    },
    {
      "doubleSided": true,
      "name": "metal",
      "normalTexture": {
        "index": 5
      },
      "occlusionTexture": {
        "index": 4
      },
      "pbrMetallicRoughness": {
        "baseColorTexture": {
          "index": 3
        },
        "metallicRoughnessTexture": {
          "index": 4
        }
      }
    },
    {
      "alphaMode": "BLEND",
      "doubleSided": true,
      "name": "glass",
      "normalTexture": {
        "index": 8
      },
      "pbrMetallicRoughness": {
        "baseColorTexture": {
          "index": 6
        },
        "metallicRoughnessTexture": {
          "index": 7
        }
      }
    },
    {
      "doubleSided": true,
      "name": "circle",
      "normalTexture": {
        "index": 11
      },
      "occlusionTexture": {
        "index": 10
      },
      "pbrMetallicRoughness": {
        "baseColorTexture": {
          "index": 9
        },
        "metallicRoughnessTexture": {
          "index": 10
        }
      }
    },
    {
      "alphaMode": "BLEND",
      "doubleSided": true,
      "name": "light",
      "normalTexture": {
        "index": 14
      },
      "occlusionTexture": {
        "index": 13
      },
      "pbrMetallicRoughness": {
        "baseColorTexture": {
          "index": 12
        },
        "metallicRoughnessTexture": {
          "index": 13
        }
      }
    }
  ],
  "meshes": [
    {
      "name": "defaultMaterial",
      "primitives": [
        {
          "attributes": {
            "NORMAL": 1,
            "POSITION": 0,
            "TANGENT": 2,
            "TEXCOORD_0": 3
          },
          "indices": 4,
          "material": 4,
          "mode": 4
        }
      ]
    },
    {
      "name": "defaultMaterial",
      "primitives": [
        {
          "attributes": {
            "NORMAL": 6,
            "POSITION": 5,
            "TANGENT": 7,
            "TEXCOORD_0": 8
          },
          "indices": 9,
          "material": 3,
          "mode": 4
        }
      ]
    },
    {
      "name": "defaultMaterial",
      "primitives": [
        {
          "attributes": {
            "NORMAL": 11,
            "POSITION": 10,
            "TANGENT": 12,
            "TEXCOORD_0": 13
          },
          "indices": 14,
          "material": 3,
          "mode": 4
        }
      ]
    },
    {
      "name": "defaultMaterial",
      "primitives": [
        {
          "attributes": {
            "NORMAL": 16,
            "POSITION": 15,
            "TANGENT": 17,
            "TEXCOORD_0": 18
          },
          "indices": 19,
          "material": 1,
          "mode": 4
        }
      ]
    },
    {
      "name": "defaultMaterial",
      "primitives": [
        {
          "attributes": {
            "NORMAL": 21,
            "POSITION": 20,
            "TANGENT": 22,
            "TEXCOORD_0": 23
          },
          "indices": 24,
          "material": 2,
          "mode": 4
        }
      ]
    },
    {
      "name": "defaultMaterial",
      "primitives": [
        {
          "attributes": {
            "NORMAL": 26,
            "POSITION": 25,
            "TANGENT": 27,
            "TEXCOORD_0": 28
          },
          "indices": 29,
          "material": 0,
          "mode": 4
        }
      ]
    }
  ],
  "nodes": [
    {
      "children": [
        1
      ],
      "matrix": [
        1.0,
        0.0,
        0.0,
        0.0,
        0.0,
        2.220446049250313e-16,
        -1.0,
        0.0,
        0.0,
        1.0,
        2.220446049250313e-16,
        0.0,
        0.0,
        0.0,
        0.0,
        1.0
      ],
      "name": "Sketchfab_model"
    },
    {
      "children": [
        2,
        4,
        6,
        8,
        11
      ],
      "matrix": [
        1.0,
        0.0,
        0.0,
        0.0,
        0.0,
        -4.371139006309477e-08,
        0.999999999999999,
        0.0,
        0.0,
        -0.999999999999999,
        -4.371139006309477e-08,
        0.0,
        0.0,
        0.0,
        0.0,
        1.0
      ],
      "name": "Collada visual scene group"
    },
    {
      "children": [
        3
      ],
      "name": "pSphere1"
    },
    {
      "mesh": 0,
      "name": "defaultMaterial"
    },
    {
      "children": [
        5
      ],
      "name": "pTorus1"
    },
    {
      "mesh": 1,
      "name": "defaultMaterial"
    },
    {
      "children": [
        7
      ],
      "name": "pTorus2"
    },
    {
      "mesh": 2,
      "name": "defaultMaterial"
    },
    {
      "children": [
        9,
        10
      ],
      "name": "revolvedSurface1"
    },
    {
      "mesh": 3,
      "name": "defaultMaterial"
    },
    {
      "mesh": 4,
      "name": "defaultMaterial"
    },
    {
      "children": [
        12
      ],
      "name": "pCube2"
    },
    {
      "mesh": 5,
      "name": "defaultMaterial"
    }
  ],
  "samplers": [
    {
      "magFilter": 9729,
      "minFilter": 9987,
      "wrapS": 10497,
      "wrapT": 10497
    }
  ],
  "scene": 0,
  "scenes": [
    {
      "name": "Sketchfab_Scene",
      "nodes": [
        0
      ]
    }
  ],
  "textures": [
    {
      "sampler": 0,
      "source": 0
    },
    {
      "sampler": 0,
      "source": 1
    },
    {
      "sampler": 0,
      "source": 2
    },
    {
      "sampler": 0,
      "source": 3
    },
    {
      "sampler": 0,
      "source": 4
    },
    {
      "sampler": 0,
      "source": 5
    },
    {
      "sampler": 0,
      "source": 6
    },
    {
      "sampler": 0,
      "source": 7
    },
    {
      "sampler": 0,
      "source": 8
    },
    {
      "sampler": 0,
      "source": 9
    },
    {
      "sampler": 0,
      "source": 10
    },
    {
      "sampler": 0,
      "source": 11
    },
    {
      "sampler": 0,
      "source": 12
    },
    {
      "sampler": 0,
      "source": 13
    },
    {
      "sampler": 0,
      "source": 14
    }
  ]
}
